<svg xmlns="http://www.w3.org/2000/svg" viewBox="0 0 174 37" fill="none">
  <path d="M165.689 29.2747C162.888 29.2747 160.695 28.5428 159.193 27.0384C157.853 25.7373 157.163 24.0296 157.163 21.956H161.223C161.223 23.2571 161.791 24.1923 162.888 24.8022C163.334 25.0055 163.821 25.1681 164.349 25.2901C164.796 25.3714 165.242 25.4121 165.689 25.4121C168.409 25.4121 169.749 24.5175 169.749 22.7692C169.749 21.2648 168.206 20.4109 165.121 20.1263C160.37 19.6791 157.975 17.7274 157.975 14.2307C157.975 12.6043 158.503 11.2219 159.599 10.1241C160.898 8.78232 162.806 8.13177 165.283 8.13177C167.841 8.13177 169.79 8.82298 171.17 10.2461C172.388 11.4658 172.997 13.0516 172.997 15.0439H168.937C168.937 13.0109 167.719 11.9944 165.283 11.9944C163.131 11.9944 162.035 12.7263 162.035 14.2307C162.035 15.5318 163.172 16.2637 165.486 16.467C168.328 16.7516 170.399 17.3208 171.698 18.256C173.119 19.2725 173.809 20.7769 173.809 22.7692C173.809 24.5175 173.2 25.9813 171.982 27.1604C170.561 28.5835 168.45 29.2747 165.689 29.2747Z" fill="currentColor"/>
  <path d="M126.706 8.53859H130.766V28.8683H126.706V8.53859Z" fill="currentColor"/>
  <path d="M118.025 8.53842H122.897V12.4011H118.025V28.8682H113.965V12.4011H109.499V8.53842H113.965V4.06588L118.025 2.84609V8.53842Z" fill="currentColor"/>
  <path d="M107.718 8.53836L98.0551 37H93.7922L96.5529 28.8681H93.914L87.012 8.53836H91.275L97.3649 26.4692L103.455 8.53836H107.718Z" fill="currentColor"/>
  <path d="M65.8778 25.4121C67.8671 25.4121 69.4505 24.8022 70.7091 23.5417C71.9677 22.2813 72.5767 20.6956 72.5767 18.7032C72.5767 16.7109 71.9677 15.1252 70.7091 13.8648C69.4505 12.6043 67.8671 11.9944 65.8778 11.9944C63.8884 11.9944 62.305 12.6043 61.0464 13.8648C59.7878 15.1252 59.1788 16.7109 59.1788 18.7032C59.1788 20.6956 59.7878 22.2813 61.0464 23.5417C62.305 24.8022 63.8884 25.4121 65.8778 25.4121ZM76.6367 8.53837V28.8681H72.5767V26.1846C70.6279 28.2582 68.1919 29.2747 65.2688 29.2747C62.3862 29.2747 59.9502 28.2582 58.042 26.2659C56.0933 24.2329 55.1189 21.712 55.1189 18.7032C55.1189 15.6944 56.0933 13.1735 58.042 11.1406C59.9502 9.14826 62.3862 8.13177 65.2688 8.13177C68.1919 8.13177 70.6279 9.14826 72.5767 11.2219V8.53837H76.6367Z" fill="currentColor"/>
  <path d="M48.4844 8.53836H52.5443V28.8681H48.4844V26.2252C46.8198 28.2582 44.5868 29.2747 41.7855 29.2747C39.1871 29.2747 37.0759 28.4208 35.4519 26.6725C33.8685 24.9648 33.0565 22.7692 33.0565 20.1263V8.53836H37.1165V19.7197C37.1165 21.4681 37.6443 22.8505 38.6593 23.867C39.6743 24.8835 41.0547 25.412 42.8004 25.412C44.5462 25.412 45.9266 24.8835 46.9416 23.867C47.9566 22.8505 48.4844 21.4681 48.4844 19.7197V8.53836Z" fill="currentColor"/>
  <path d="M14.9143 0V3.85846H14.9139C8.80448 3.85846 3.85173 8.81974 3.8517 14.9397C3.85174 21.0596 8.80449 26.0209 14.9139 26.0209C21.0233 26.0209 25.9759 21.0596 25.9759 14.9397C25.9759 8.95274 21.2361 4.07484 15.3104 3.86564L22.0541 1.82043C26.6862 4.35545 29.8283 9.28017 29.8284 14.94C29.8283 19.1991 28.049 23.0418 25.1945 25.7632L29.8289 29.8724H15.3802C15.2254 29.8771 15.07 29.8799 14.9141 29.8799C6.67729 29.8799 7.83123e-05 23.191 0 14.94C7.64314e-05 6.68906 6.67746 4.62965e-05 14.9143 0Z" fill="currentColor"/>
  <path d="M85.0515 28.8681H80.9917V3.40133L85.0515 2.16992V28.8681Z" fill="currentColor"/>
  <path d="M130.766 5.76666H126.706V4.07777L130.766 2.84636V5.76666Z" fill="currentColor"/>
  <path d="M144.971 8.13186C147.772 8.13186 150.127 8.9857 152.076 10.6527C153.68 12.0539 154.738 13.7711 155.252 15.8525L151.374 17.0286C151.045 15.5473 150.317 14.3833 149.153 13.4582C147.975 12.523 146.595 12.0757 144.971 12.0757C143.063 12.0757 141.479 12.6856 140.221 13.946C138.962 15.2065 138.353 16.7923 138.353 18.7033C138.353 20.6143 138.962 22.2 140.221 23.4604C141.479 24.7208 143.063 25.3308 144.971 25.3308C146.595 25.3308 147.975 24.8834 149.153 23.9482C149.927 23.3328 150.508 22.6114 150.908 21.7614L155.479 20.375C155.107 22.9967 153.973 25.0964 152.076 26.7539C150.127 28.4209 147.772 29.2748 144.971 29.2748C141.885 29.2747 139.327 28.2582 137.338 26.2659C135.308 24.2736 134.293 21.7527 134.293 18.7033C134.293 15.6539 135.308 13.1329 137.338 11.1406C139.327 9.14827 141.885 8.13188 144.971 8.13186Z" fill="currentColor"/>
</svg>
